<?xml version="1.0" encoding="utf-8"?>
<svg xmlns="http://www.w3.org/2000/svg" style="fill-rule:evenodd;clip-rule:evenodd;stroke-linejoin:round;stroke-miterlimit:2" viewBox="0 0 651 436">
  <path d="M 433.624 360.382 C 433.473 356.341 428.024 358.727 427.926 357.558 C 427.872 356.916 427.988 356.202 428.358 355.676 C 428.846 354.983 431.402 357.059 430.762 356.503 C 425.869 352.252 429.757 355.946 431.102 355.952 C 432.099 355.956 429.607 354.633 428.845 353.991 C 428.536 353.731 429.793 353.963 429.996 353.615 C 430.382 352.951 429.777 351.148 430.511 351.371 C 431.447 351.654 430.241 354.238 431.218 354.216 C 431.923 354.201 433.311 353.376 432.929 352.376 C 432.731 351.858 431.559 353.235 431.307 352.741 C 431.299 352.726 432.962 348.932 433.178 348.73 C 435.3 346.743 433.413 352.613 434.519 350.742 C 435.041 349.859 439.833 346.05 440.079 346.386 C 440.451 346.895 440.124 347.759 440.558 348.217 C 440.923 348.601 440.306 345.874 440.582 345.732 C 441.286 345.37 441.321 351.228 442.908 345.179 C 443.119 344.376 441.511 343.676 441.857 342.921 C 441.968 342.679 446.256 343.195 446.283 344.171 C 446.306 344.98 443.474 345.508 444.282 345.545 C 445.225 345.587 446.174 345.479 447.103 345.315 C 448.448 345.079 449.065 343.856 450.147 343.155 C 455.747 339.528 456.125 341.898 455.957 341.317 C 455.57 339.98 452.752 339.529 455.405 338.224 C 463.033 334.474 470.29 331.92 477.548 326.946 C 483.877 322.608 496.166 318.38 498.877 309.968 C 500.21 305.832 495.869 301.833 496.281 297.605 C 496.707 293.219 499.163 289.254 500.112 284.95 C 500.552 282.951 499.299 277.767 501.549 276.435 C 502.909 275.63 504.698 275.999 506.197 275.497 C 506.689 275.332 503.339 274.013 506.233 272.27 C 513.178 268.087 517.697 272.663 520.332 262.437 C 520.747 260.824 521.521 263.19 521.429 262.874 C 519.866 257.549 516.649 261.533 516.281 260.764 C 515.492 259.108 513.74 257.662 513.846 255.831 C 513.871 255.405 514.761 251.655 513.644 251.514 C 513.341 251.476 512.638 251.726 512.732 251.436 C 513.273 249.764 514.942 246.093 514.174 244.757 C 512.928 242.592 510.755 240.998 509.74 238.715 C 508.829 236.669 509.656 234.049 508.544 232.105 C 507.923 231.02 506.125 231.331 505.103 230.609 C 501.363 227.965 499.372 220.085 498.898 215.303 C 498.607 212.359 501.617 212.913 502.23 209.894 C 503.567 203.311 502.984 199.136 503.733 192.674 C 503.808 192.022 508.401 184.372 505.161 184.349 C 501.074 184.32 499.385 200.06 498.9 203.493 C 498.871 203.704 497.468 204.669 497.268 203.769 C 496.704 201.24 498.089 198.886 498.836 196.692 C 499.224 195.55 497.473 190.335 498.196 189.864 C 498.63 189.581 498.587 191.164 499.103 191.124 C 501.582 190.932 500.561 186.37 500.763 185.777 C 501.634 183.229 503.464 181.091 504.413 178.571 C 505.294 176.234 503.366 173.594 503.134 171.546 C 503.016 170.512 505.83 165.823 506.694 164.368 C 507.065 163.743 508.892 165.709 508.785 164.99 C 508.387 162.302 505.375 164.803 508.307 160.301 C 511.39 155.569 519.256 151.43 524.64 150.193 C 525.088 150.089 525.094 151.656 525.42 151.331 C 526.261 150.497 524.848 145.74 529.475 146.309 C 530.752 146.466 530.605 148.813 530.338 150.072 C 530.223 150.615 528.671 149.539 528.672 150.095 C 528.674 150.66 530.628 149.921 530.339 150.406 C 530.058 150.876 528.379 151.269 528.927 151.246 C 531.967 151.117 533.744 148.486 533.415 146.33 C 533.249 145.244 535.891 147.751 533.84 145.15 C 533.159 144.287 535.538 143.753 536.37 143.034 C 537.021 142.471 534.802 142.01 534.575 141.18 C 534.296 140.16 534.651 138.959 535.232 138.075 C 535.646 137.446 537.762 139.342 537.41 138.677 C 536.695 137.327 535.662 136.723 538.115 136.555 C 540.925 136.362 536.524 138.156 538.625 138.595 C 539.41 138.76 541.145 137.988 540.676 137.336 C 539.943 136.316 538.143 136.965 537.032 136.378 C 536.355 136.02 538.539 136.085 539.268 135.853 C 540.552 135.445 542.237 131.861 542.323 133.206 C 542.367 133.904 541.837 134.52 541.67 135.199 C 541.505 135.872 543.571 134.021 543.012 133.612 C 542.165 132.993 540.463 131.315 541.424 130.895 C 543.214 130.114 544.552 129.964 547.466 130.307 C 547.955 130.364 545.624 130.372 546.007 130.061 C 546.663 129.529 547.674 129.755 548.475 129.487 C 549.604 129.108 545.673 130.072 544.917 129.152 C 544.046 128.091 547.648 128.387 548.681 127.484 C 549.218 127.014 547.374 126.81 546.937 126.247 C 546.5 125.685 548.468 126.792 549.066 126.407 C 551.335 124.945 555.134 120.318 556.044 119.782 C 557.068 119.178 559.759 119.514 559.333 118.405 C 558.902 117.282 556.995 119.333 555.805 119.16 C 555.459 119.11 557.711 116.606 557.847 115.815 C 557.99 114.982 553.868 118.538 555.37 115.943 C 556.607 113.805 558.182 111.787 560.12 110.255 C 560.532 109.929 561.784 111.095 561.662 110.583 C 561.213 108.685 561.505 104.206 562.581 101.692 C 562.969 100.788 565.435 101.826 565.408 100.843 C 565.343 98.533 564.225 98.945 566.261 97.304 C 566.73 96.926 567.974 98.473 567.976 97.871 C 567.978 96.756 567.326 95.61 567.644 94.541 C 567.672 94.447 570.032 95.622 568.671 93.978 C 566.557 91.424 566.829 94.756 564.2 92.604 C 563.264 91.838 564.932 90.837 564.965 90.427 C 565.16 88.055 560.175 83.654 562.554 83.707 C 563.464 83.728 563.137 85.727 563.997 86.027 C 564.549 86.219 564.326 84.405 564.898 84.524 C 566.471 84.851 567.83 85.957 568.993 87.066 C 570.96 88.942 568.112 89.842 568.565 91.806 C 568.712 92.441 569.232 90.399 569.883 90.361 C 570.489 90.325 571.148 92.261 571.166 91.654 C 571.252 88.805 564.234 78.133 563.542 78.069 C 562.647 77.987 562.228 79.987 561.382 79.684 C 558.783 78.752 557.277 71.358 556.149 69.651 C 554.739 67.517 549.333 59.921 548.781 57.012 C 548.112 53.491 550.871 60.219 550.029 56.577 C 549.287 53.368 547.952 54.191 548.8 50.349 C 549.019 49.356 549.541 53.026 550.315 50.843 C 550.466 50.419 545.986 42.29 547.28 42.292 C 549.785 42.297 552.678 49.776 552.554 51.944 C 552.51 52.707 549.213 53.744 550.541 55.195 C 554.647 59.68 549.885 48.846 553.643 56.262 C 554.426 57.808 556.594 65.846 557.614 66.438 C 562.435 69.237 560.474 67.48 565.63 71.296 C 566.92 72.251 563.636 68.14 564.287 66.673 C 565.64 63.63 566.962 69.368 567.04 66.792 C 567.08 65.474 563.453 65.503 563.974 64.291 C 563.975 64.288 568.902 62.309 569.093 61.385 C 569.466 59.583 567.143 55.766 568.981 55.864 C 569.925 55.914 570.155 57.434 571.003 57.85 C 572.203 58.438 576.953 58.808 578.366 59.565 C 579.193 60.008 578.92 62.199 579.83 61.971 C 580.75 61.74 569.955 50.918 585.061 53.586 C 587.119 53.949 582.142 57.707 582.3 58.067 C 583.145 59.994 588.915 52.498 591.429 55.179 C 592.684 56.517 592.434 60.791 593.136 61.975 C 593.979 63.399 596.171 63.13 595.589 65.509 C 594.453 70.148 594.308 65.586 593.638 65.99 C 592.891 66.442 592.088 71.427 591.857 72.356 C 591.374 74.294 594.482 74.905 595.906 76.737 C 596.253 77.182 597.299 77.72 597.533 77.206 C 598.749 74.529 597.093 73.005 602.118 68.946 C 606.437 65.458 606.359 70.689 606.822 70.802 C 608.347 71.173 611.162 68.127 611.393 69.679 C 612.307 75.822 610.111 72.067 608.749 74.903 C 608.074 76.311 608.715 80.28 607.429 79.396 C 605.313 77.943 606.019 74.832 602.729 80.242 C 600.268 84.289 606.516 79.186 606.7 82.127 C 606.752 82.952 605.049 81.55 604.249 81.757 C 603.302 82.001 601.519 84.454 602.406 84.041 C 606.216 82.266 611.937 80.858 617.239 82.939 C 618.829 83.563 615.53 85.989 615.291 87.681 C 614.978 89.902 616.321 92.084 616.349 94.326 C 616.362 95.384 615.873 96.51 615.119 97.25 C 614.831 97.532 613.984 96.211 614.104 96.596 C 614.757 98.706 615.213 99.971 613.947 103.076 C 613.193 104.926 611.732 102.197 611.658 102.19 C 611.14 102.143 611.792 103.585 611.286 103.704 C 610.757 103.83 607.491 105.001 607.003 105.305 C 604.153 107.081 601.939 111.936 599.873 114.543 C 598.246 116.595 592.717 118.962 592.32 121.765 C 592.197 122.632 594.345 122.139 594.66 122.956 C 597.648 130.723 592.901 119.22 593.902 124.411 C 594.244 126.186 596.571 130.998 595.395 129.625 C 594.036 128.04 591.375 122.488 591.725 124.547 C 591.727 124.557 594.404 130.482 594.558 130.673 C 595.018 131.246 596.973 130.966 596.567 131.578 C 595.686 132.906 591.25 132.784 592.388 133.899 C 596.04 137.477 591.177 132.571 593.66 136.923 C 593.745 137.072 591.355 144.24 590.895 145.281 C 588.776 150.086 589.973 143.064 588.283 144.93 C 585.777 147.695 590.743 149.517 588.043 152.784 C 587.496 153.445 585.099 154.387 585.949 154.278 C 587.141 154.125 588.031 152.796 589.232 152.791 C 590.268 152.787 590.972 154.512 591.976 154.252 C 592.91 154.011 589.675 151.307 590.537 151.741 C 594.254 153.612 589.566 157.812 591.997 161.802 C 593.048 163.527 590.925 162.307 593.377 161.251 C 594.13 160.926 594.453 163.219 593.773 163.676 C 592.527 164.515 590.539 164.941 590.562 165.117 C 590.664 165.896 592.044 164.508 592.829 164.473 C 594.376 164.404 596.766 165.526 597.47 164.688 C 598.154 163.875 597.557 162.441 598.181 161.579 C 598.326 161.378 602.654 160.335 602.879 160.928 C 604.056 164.027 593.099 168.067 596.39 168.464 C 597.12 168.552 598.817 168.959 598.331 169.51 C 597.436 170.525 593.899 171.468 595.136 172.015 C 600.004 174.165 598.715 169.526 601.484 170.318 C 602.157 170.511 602.714 173.286 601.969 174.046 C 601.427 174.6 596.541 177.34 595.376 176.015 C 588.179 167.834 605.573 180.584 594.922 176.012 C 594.16 175.685 594.861 174.191 594.267 173.612 C 592 171.406 595.172 180.113 591.394 174.247 C 590.635 173.069 590.699 168.711 590.637 170.111 C 590.544 172.233 593.243 176.348 588.482 174.958 C 587.632 174.709 586.7 174.243 586.289 173.459 C 585.749 172.428 586.759 169.556 585.691 170.018 C 584.478 170.542 585.867 172.827 585.164 173.945 C 584.577 174.879 583.278 172.546 582.175 172.524 C 580.277 172.485 573.908 173.394 573.24 176.207 C 573.122 176.706 574.987 176.219 574.714 176.654 C 573.978 177.833 572.114 178.296 571.817 179.654 C 571.633 180.497 573.461 180.635 573.659 181.475 C 574.264 184.037 573.597 186.778 574.11 189.361 C 574.347 190.554 576.102 191.371 575.861 192.564 C 575.58 193.951 571.686 197.074 571.355 199.255 C 571.146 200.634 573.819 200.991 574.771 199.797 C 575.854 198.438 575.995 196.188 577.53 195.375 C 578.913 194.643 580.675 196.224 582.198 195.866 C 583.309 195.605 590.044 183.863 591.848 185.914 C 593.665 187.979 595.229 191.649 594.951 194.075 C 594.775 195.607 590.437 196.045 591.502 197.161 C 591.832 197.506 593.444 197.952 592.461 198.898 C 592.152 199.196 591.08 198.917 591.242 199.314 C 592.32 201.946 596.196 198.176 597.707 198.522 C 598.617 198.73 596.961 200.254 596.807 201.176 C 596.427 203.449 593.966 208.155 594.652 209.578 C 595.173 210.657 597.687 212.062 596.612 212.593 C 595.463 213.162 591.501 212.374 592.765 212.593 C 595.782 213.116 598.633 213.8 596.121 217.32 C 593.414 221.113 584.258 212.907 582.554 212.862 C 581.051 212.822 579.558 213.54 578.068 213.334 C 577.476 213.253 577.396 212.089 576.799 212.068 C 576.222 212.048 577.182 213.765 576.605 213.789 C 574.019 213.898 571.048 212.321 568.841 213.674 C 564.517 216.323 583.973 211.105 583.846 216.174 C 583.781 218.803 581.633 215.729 580.789 216.255 C 580.177 216.637 581.811 217.408 581.876 218.126 C 581.906 218.446 581.096 218.21 580.994 218.515 C 580.714 219.354 580.545 220.339 580.86 221.165 C 581.343 222.432 584.45 224.595 583.095 224.563 C 580.945 224.513 578.724 224.538 576.682 223.864 C 575.441 223.454 576.49 221.818 577.114 221.81 C 578.289 221.795 579.424 222.668 580.58 222.457 C 581.109 222.36 579.465 221.927 579.359 221.399 C 579.294 221.076 580.657 221.316 580.336 221.243 C 578.636 220.853 570.995 218.069 569.235 220.819 C 568.9 221.343 570.082 222.284 569.581 222.652 C 569.108 222.999 568.715 221.817 568.17 221.601 C 566.862 221.082 565.389 221.045 564.101 220.478 C 563.906 220.392 564.681 219.854 564.522 219.995 C 563.782 220.65 562.474 222.382 561.158 222.144 C 560.614 222.046 561.396 219.968 561.197 220.484 C 560.418 222.515 559.907 223.335 557.588 223.681 C 556.272 223.878 560.821 219.7 559.6 220.232 C 558.927 220.526 558.631 221.554 557.901 221.636 C 557.501 221.681 557.945 220.068 557.781 220.436 C 557.477 221.115 558.152 222.952 557.472 222.648 C 557.173 222.515 557.456 221.422 557.269 221.689 C 556.894 222.223 557.352 223.228 556.811 223.592 C 556.444 223.838 556.059 222.019 556.129 222.455 C 556.683 225.887 557.595 221.999 556.252 225.833 C 556.097 226.274 556.718 224.971 556.702 224.504 C 556.683 223.924 555.557 224.695 554.982 224.776 C 554.501 224.844 556.026 226.134 555.54 226.123 C 555.005 226.111 554.537 226.651 554.005 226.593 C 551.671 226.338 548.365 225.389 545.853 225.696 C 540.281 226.375 542.59 234.401 537.442 235.92 C 534.893 236.672 539.246 228.535 539.25 228.524 C 540.163 225.775 535.848 221.767 535.096 220.272 C 531.94 213.998 531.978 221.143 531.594 221.143 C 531.152 221.144 529.45 217.225 529.227 216.805 C 525.239 209.27 516.633 215.375 512.215 219.885 C 508.322 223.86 510.026 231.38 515.029 232.736 C 517.819 233.492 517.362 231.023 520.377 230.842 C 520.526 230.833 525.484 233.137 524.772 234.365 C 524.191 235.367 514.265 238.634 516.166 240.439 C 518.588 242.737 522.05 244.631 521.889 246.395 C 521.422 251.513 515.183 249.812 516.319 256.478 C 516.702 258.728 519.964 258.646 521.179 259.395 C 522.944 260.482 521.96 262.406 522.641 263.931 C 523.261 265.32 525.535 262.962 526.895 262.28 C 528.244 261.605 532.945 263.054 534.668 263.472 C 536.04 263.804 530.327 266.544 531.214 268.525 C 531.652 269.505 532.28 266.484 533.255 266.032 C 534.262 265.565 535.431 266.616 536.54 266.574 C 536.846 266.563 536.693 265.474 536.877 265.719 C 537.202 266.15 537.482 269.708 537.641 269.902 C 541.136 274.191 543.567 273.608 546.833 276.136 C 547.302 276.499 545.36 276.737 545.498 277.314 C 545.547 277.518 545.979 277.206 546.126 277.356 C 546.618 277.859 547.297 278.426 547.272 279.129 C 547.247 279.824 544.837 279.547 545.371 279.993 C 550.064 283.911 547.501 285.134 549.064 289.233 C 549.668 290.819 556.792 291.59 557.153 298.107 C 557.223 299.38 556.234 300.525 556.149 301.797 C 556.109 302.39 557.55 303.72 556.254 304.256 C 554.216 305.099 552.116 305.814 549.97 306.323 C 549.66 306.397 549.072 305.639 549.087 305.958 C 549.144 307.226 551.835 306.642 551.978 306.8 C 552.473 307.349 551.649 308.39 552.042 309.016 C 552.45 309.665 553.758 309.413 554.062 310.117 C 554.264 310.585 552.479 311.197 552.988 311.207 C 554.602 311.237 557.418 308.736 558.752 310.107 C 564.736 316.258 560.151 316.52 561.063 317.606 C 561.363 317.963 562.033 317.233 562.452 317.437 C 569.54 320.886 569.088 322.255 573.999 328.952 C 577.655 333.937 578.512 327.519 576.678 335.986 C 575.502 341.413 564.848 343.606 561.543 343.797 C 559.198 343.933 556.09 351.963 554.007 353.787 C 551.036 356.388 546.66 359.65 543.016 360.932 C 537.422 362.9 537.85 359.044 534.041 357.713 C 530.866 356.604 524.62 355.359 521.464 355.636 C 518.629 355.886 517.673 360.061 515.158 361.394 C 512.413 362.85 505.761 362.776 502.493 362.195 C 500.65 361.868 506.729 363.076 508.094 361.795 C 508.589 361.329 508.367 360.117 507.776 359.779 C 507.285 359.499 507.022 360.705 506.483 360.875 C 502.355 362.18 495.098 364.777 491.279 361.541 C 489.783 360.274 487.122 355.675 488.773 353.764 C 489.531 352.888 492.83 351.612 491.708 351.9 C 486.255 353.303 488.276 361.066 484.178 361.671 C 475.603 362.938 477.302 356.976 472.986 354.266 C 471.352 353.24 469.889 357.304 467.967 357.145 C 451.093 355.751 479.113 354.812 465.507 352.401 C 459.889 351.405 464.159 356.81 462.293 357.519 C 461.589 357.787 461.82 356.088 461.545 355.386 C 461.366 354.932 460.956 356.274 460.483 356.395 C 458.753 356.838 456.922 357.037 455.145 356.854 C 452.437 356.575 453.98 353.066 450.247 355.066 C 447.313 356.637 450.475 359.395 448.23 359.961 C 445.388 360.678 446.62 359.369 442.841 358.689 C 438.868 357.974 436.885 357.237 433.791 360.798 L 433.624 360.382 Z M 650.5 264.841 C 650.5 284.176 650.635 303.512 650.5 322.847 C 650.455 329.342 633.482 320.583 633.557 315.449 C 633.568 314.69 629.626 308.819 629.723 308.643 C 629.915 308.295 630.95 307.895 630.565 307.8 C 629.721 307.592 625.763 305.933 627.548 304.659 C 628.169 304.216 629.278 305.094 629.835 304.573 C 630.909 303.571 626.434 302.987 626.646 301.534 C 626.961 299.366 629.806 298.177 630.233 296.028 C 630.803 293.161 628.701 289.414 629.742 287.924 C 642.763 269.282 634.59 282.571 642.295 275.222 C 644.104 273.498 646.768 263.769 650.299 263.463 M 32.725 247.74 C 30.183 246.809 25.285 243.151 23.675 243.061 C 21.558 242.942 24.633 247.706 26.462 248.779 C 27.008 249.1 27.747 248.869 28.334 249.108 C 29.883 249.74 31.42 250.445 32.814 251.37 C 33.414 251.768 31.369 251.054 30.661 251.186 C 29.124 251.473 31.408 254.578 30.534 255.874 C 30.25 256.294 29.997 253.018 29.071 252.487 C 26.888 251.238 24.286 250.818 22.135 249.513 C 21.721 249.262 20.325 245.985 18.863 246.544 C 17.419 247.096 16.655 248.862 15.203 249.393 C 14.376 249.695 13.504 248.82 12.624 248.825 C 10.749 248.838 12.01 251.625 11.792 251.927 C 11.033 252.982 9.502 253.228 8.593 254.158 C 4.505 258.34 8.76 254.737 8.014 258.068 C 7.772 259.147 0.477 262.239 0.477 262.239 L 0.5 249.628 C 0.5 249.628 7.654 250.48 6.28 246.442 C 4.72 241.856 0.929 240.494 1.398 240.309 C 2.446 239.895 3.777 240.74 4.776 240.219 C 5.237 239.98 4.446 239.198 4.519 238.684 C 4.617 237.987 5.943 239.06 6.621 238.873 C 7.713 238.571 10.093 235.523 11.226 234.843 C 12.402 234.138 11.445 231.792 12.518 230.936 C 13.618 230.058 16.99 231.057 16.561 229.716 C 15.803 227.346 13 220.822 15.944 222.308 C 18.095 223.395 14.752 229.133 17.818 228.676 C 22.395 227.993 20.26 228.289 25.159 225.504 C 25.442 225.343 25.643 226.086 25.967 226.053 C 27.261 225.92 28.634 225.729 29.734 225.034 C 30.573 224.505 27.443 222.574 27.235 221.568 C 26.195 216.551 30.084 221.422 30.062 219.062 C 30.053 218.019 27.777 216.472 27.976 215.951 C 28.706 214.036 33.433 214.52 33.212 212.286 C 32.931 209.44 27.337 217.238 24.928 213.447 C 22.953 210.339 26.857 203.792 24.258 203.319 C 22.626 203.022 20.962 210.464 20.652 211.916 C 20.039 214.792 21.632 214.217 23.096 215.76 C 23.551 216.24 21.646 224.518 20.536 225.559 C 18.428 227.536 17.383 220.705 15.575 218.451 C 14.786 217.467 14.534 220.82 13.622 221.69 C 12.913 222.365 12.166 221.932 11.524 221.437 C 10.374 220.55 11.492 218.785 11.742 217.445 C 11.857 216.826 11.19 219.269 10.635 218.973 C 9.914 218.589 9.749 217.308 10.114 216.577 C 10.436 215.934 12.901 216.04 12.185 215.97 C 8.22 215.586 10.976 216.346 11.308 214.824 C 11.412 214.347 9.716 214.863 9.902 214.412 C 10.322 213.395 16.324 209.978 13.512 211.05 C 12.22 211.543 14.734 208.566 15.244 207.281 C 15.426 206.822 15.501 197.953 17.697 197.152 C 18.655 196.803 19.262 195.952 20.219 193.896 C 20.402 193.504 20.871 195.105 21.165 194.787 C 21.758 194.142 24.309 191.015 24.936 192.856 C 25.097 193.331 24.186 194.496 24.662 194.336 C 25.97 193.895 34.357 191.5 35.431 195.015 C 36.748 199.321 29.763 197.762 28.992 198.408 C 28.149 199.114 31.152 199.056 32.005 199.75 C 34.154 201.501 32.38 203.377 36.113 201.896 C 37.205 201.462 32.768 200.558 34.394 199.851 C 40.78 197.075 32.933 201.1 36.515 195.525 C 36.853 195 38.417 195.521 38.286 194.911 C 37.908 193.157 33.567 192.376 34.648 190.945 C 37.015 187.811 38.964 194.486 39.338 192.248 C 39.39 191.939 40.777 184.712 40.884 184.777 C 41.377 185.08 41.189 185.994 41.659 186.332 C 42.75 187.117 42.452 183.727 43.183 182.599 C 43.383 182.29 45.778 183.14 44.63 181.536 C 44.17 180.893 42.804 180.649 42.943 179.871 C 43.234 178.247 49.118 176.884 49.389 176.716 C 51.221 175.582 44.734 176.056 43.356 174.401 C 42.75 173.674 38.725 168.345 42.543 168.506 C 44.33 168.582 53.276 175.079 54.187 176.885 C 54.437 177.381 52.747 178.98 53.131 178.781 C 53.968 178.347 55.172 177.895 55.296 176.961 C 55.983 171.783 53.027 174.795 51.531 171.897 C 49.806 168.557 56.175 172.485 55.596 170.207 C 55.095 168.24 50.228 171.871 50.092 171.89 C 48.406 172.126 45.198 168.65 44.458 167.687 C 44.109 167.232 42.452 166.592 42.99 166.791 C 44.678 167.418 49.257 168.216 48.391 166.637 C 47.899 165.739 45.053 167.687 45.321 166.7 C 45.343 166.618 46.084 161.868 47.969 162.425 C 49.262 162.807 52.685 164.829 51.752 163.856 C 49.74 161.758 43.685 163.979 43.294 162.711 C 40.575 153.895 43.58 159.786 45.482 158.63 C 46.98 157.719 41.127 158.621 40.484 156.99 C 39.857 155.397 38.876 153.846 38.803 152.135 C 38.75 150.893 38.593 149.635 38.773 148.404 C 38.815 148.117 39.868 148.126 39.581 148.079 C 39.052 147.994 34.124 146.807 34.405 145.007 C 34.492 144.45 37.633 143.742 37.673 143.502 C 37.866 142.375 36.514 141.362 36.653 140.228 C 36.856 138.582 40.254 137.636 40.537 137.79 C 43.475 139.387 45.453 142.619 48.594 143.767 C 50.305 144.393 47.157 138.494 45.505 139.26 C 44.186 139.871 44.751 137.448 45.106 137.247 C 46.129 136.668 47.476 136.95 48.542 136.456 C 49.624 135.954 45.477 136.62 45.098 135.489 C 43.608 131.047 47.771 133.033 45.957 128.36 C 45.162 126.31 42.542 129.203 42.269 124.29 C 42.194 122.95 44.814 121.472 45.511 121.015 C 47.763 119.542 43.9 125.025 45.842 122.717 C 45.974 122.559 50.386 117.48 49.328 116.939 C 48.169 116.346 46.608 117.961 45.447 117.372 C 45.323 117.309 44.456 111.066 44.255 110.471 C 44.122 110.078 43.587 111.31 43.208 111.142 C 42.564 110.858 42.646 109.521 41.947 109.451 C 35.805 108.831 41.349 112.298 39.58 111.91 C 36.003 111.124 35.831 111.817 34.301 105.749 C 34.119 105.029 36.773 107.34 36.263 106.801 C 35.587 106.088 34.472 105.842 33.894 105.048 C 33.335 104.28 37.63 104.764 36.702 104.563 C 35.483 104.299 34.132 104.832 32.964 104.393 C 32.143 104.084 32.346 97.822 32.406 96.349 C 32.511 93.803 27.813 94.091 25.733 92.619 C 23.476 91.022 23.707 82.841 24.59 80.615 C 24.829 80.013 26.688 79.225 26.05 79.333 C 21.445 80.112 26.157 80.765 23.324 82.514 C 20.222 84.43 16.753 80.64 14.427 79.997 C 13.809 79.826 13.17 81.175 12.667 80.777 C 11.736 80.039 11.342 74.521 8.749 75.295 C 5.454 76.278 10.499 81.318 7.575 81.708 C 5.993 81.919 4.637 80.415 3.085 80.039 C 2.248 79.836 0.576 80.851 0.5 79.993 C -0.357 70.363 0.179 37.602 0.5 31.276 C 0.598 29.343 17.438 21.056 18.672 20.138 C 19.732 19.349 19.516 17.429 20.601 16.677 C 21.936 15.751 22.625 22.518 23.905 23.246 C 25.973 24.422 30.465 24.985 32.617 24.546 C 34.535 24.154 36.526 21.058 38.043 22.296 C 39.403 23.406 34.425 25.575 35.54 26.931 C 36.761 28.416 39.416 26.751 41.26 26.21 C 41.868 26.032 42.053 24.54 42.599 24.861 C 44.264 25.841 44.734 30.342 48.32 28.148 C 54.097 24.616 47.865 25.607 54.066 23.848 C 56.574 23.136 60.455 23.52 62.346 20.961 C 66.911 14.783 56.029 19.074 59.869 14.95 C 60.966 13.772 63.107 14.311 64.449 13.423 C 67.607 11.336 66.64 4.165 70.567 4.012 C 71.083 3.992 75.521 5.14 72.442 6.978 C 71.452 7.568 69.584 6.387 69.008 7.386 C 68.345 8.535 71.649 7.86 72.971 7.747 C 77.919 7.325 74.643 11.343 81.492 6.398 C 83.576 4.893 84.378 1.961 86.537 0.565 C 88.603 -0.77 91.649 7.38 97.685 8.335 C 101.216 8.893 103.727 6.058 106.527 4.722 C 107.176 4.412 106.645 6.157 106.658 6.877 C 106.692 8.827 109.798 9.285 110.935 10.87 C 111.323 11.41 110.274 13.069 110.906 12.863 C 116.651 10.993 101.175 10.362 116.946 11.181 C 120.804 11.382 137.254 17.378 127.632 20.498 C 124.47 21.523 121.08 21.734 117.923 22.776 C 104.46 27.216 95.427 35.121 80.863 34.615 C 79.651 34.573 79.025 36.683 77.816 36.599 C 75.172 36.415 73.703 32.013 68.331 32.293 C 62.01 32.622 55.034 35.026 48.977 35.373 C 47.039 35.484 45.098 34.383 43.188 34.733 C 40.388 35.245 37.731 40.749 35.978 42.296 C 34.915 43.234 31.073 40.851 31.73 42.107 C 32.432 43.448 35.028 46.479 37.252 45.455 C 44.572 42.084 39.127 43.461 40.814 40.352 C 41.783 38.567 41.698 41.79 42.86 41.616 C 46.345 41.096 53.267 37.105 53.386 40.627 C 53.413 41.411 51.789 41.446 51.655 42.218 C 51.553 42.8 53.232 43.013 52.886 43.491 C 48.55 49.48 46.871 44.592 50.186 47.704 C 50.608 48.1 49.869 49.058 50.308 49.436 C 51.97 50.865 53.849 52.345 56.01 52.711 C 57.96 53.042 68.561 52.546 71.416 51.863 C 74.24 51.187 71.232 46.755 73.002 47.456 C 81.085 50.657 72.687 48.676 75.529 51.798 C 76.417 52.774 81.048 55.041 80.971 57.151 C 80.841 60.68 78.059 54.293 77.603 56.235 C 77.26 57.69 78.207 64.815 79.855 65.347 C 80.035 65.405 82.192 65.22 82.225 65.322 C 83.149 68.209 84.552 70.367 85.229 71.999 C 86.364 74.739 84.96 79.164 88.358 81.548 C 93.383 85.076 99.48 86.841 104.151 91.018 C 106.316 92.953 107.423 97.961 110.239 97.249 C 111.438 96.946 110.125 94.374 111.125 93.646 C 112.101 92.934 113.649 94.175 114.748 93.674 C 115.218 93.46 112.578 92.07 112.96 91.295 C 113.428 90.348 115.024 92.895 115.941 92.371 C 117.598 91.425 114.471 89.262 114.397 89.128 C 114.299 88.951 114.665 88.718 114.866 88.742 C 115.36 88.803 116.216 88.04 116.216 88.04 C 116.216 88.04 114.885 86.639 114.41 85.515 C 113.483 83.319 117.403 81.097 117.614 80.922 C 118.841 79.902 118.709 82.36 118.796 82.376 C 119.411 82.485 119.693 81.395 120.304 81.264 C 124.186 80.425 125.647 82.906 129.653 84.385 C 134.504 86.176 136.27 83.96 140.492 87.835 C 145.738 92.651 152.514 101.724 155.148 108.621 C 155.851 110.463 155.89 112.568 155.602 114.518 C 155.404 115.862 151.88 115.467 152.214 116.783 C 153.243 120.833 155.053 122.503 156.814 125.639 C 159.315 130.093 156.497 128.233 157.459 132.228 C 158.166 135.166 171.691 129.711 171.688 137.22 C 171.688 138.264 170.533 139 170.255 140.007 C 170.052 140.746 170.534 143.152 169.834 143.504 C 168.23 144.312 166.312 140.717 165.969 140.427 C 159.749 135.168 166.44 141.206 163.604 140.274 C 161.362 139.537 168.274 136.262 161.589 137.612 C 160.418 137.849 159.492 141.747 158.079 140.299 C 157.77 139.983 156.62 136.613 155.163 137.411 C 152.06 139.109 153.396 145.935 151.784 146.514 C 151.561 146.594 149.594 142.325 149.215 141.932 C 147.616 140.275 146.948 143.292 147.001 143.698 C 147.29 145.908 148.41 147.981 148.535 150.207 C 148.792 154.779 146.833 152.622 151.305 151.835 C 153.395 151.468 152.062 153.901 153.71 152.547 C 157.303 149.595 149.352 149.333 157.195 145.997 C 158.553 145.42 155.499 156.812 158.91 156.36 C 160.354 156.168 167.915 155.621 168.807 156.839 C 169.532 157.826 164.802 158.776 165.963 159.166 C 166.283 159.273 166.264 158.455 166.591 158.372 C 167.817 158.061 169.341 157.317 170.372 158.049 C 171.363 158.753 168.326 162.072 169.436 161.575 C 172.504 160.199 173.577 159.5 175.19 162.998 C 175.963 164.676 175.662 166.663 175.9 168.496 C 175.929 168.714 176.815 170.804 176.809 171.836 C 176.785 175.563 177.87 180.953 174.388 184.342 C 173.894 184.823 172.794 183.673 172.324 184.178 C 171.953 184.577 173.757 184.598 173.652 185.133 C 173.194 187.48 171.36 189.4 170.849 191.736 C 170.72 192.327 172.459 193.01 171.892 193.221 C 169.216 194.218 166.666 189.27 166.227 196.788 C 165.719 205.485 176.552 200.224 181.379 205.451 C 184.122 208.422 181.252 209.957 180.546 212.365 C 180.538 212.393 181.625 216.979 180.368 217.29 C 179.408 217.528 179.232 215.429 178.273 215.191 C 175.043 214.389 174.386 218.644 170.494 213.739 C 167.962 210.548 176.57 208.662 172.063 206.149 C 171.055 205.587 166.278 203.811 165.124 205.138 C 164.094 206.321 164.795 209.959 163.302 209.478 C 159.902 208.382 161.462 206.047 158.22 206.407 C 156.512 206.597 157.464 208.363 157.218 209.095 C 154.874 216.056 165.416 214.574 168.737 219.393 C 169.454 220.434 170.831 223.003 169.57 223.093 C 168.675 223.157 161.76 215.974 159.99 215.139 C 157.225 213.836 157.454 221.539 155.884 220.151 C 154.493 218.922 151.665 216.075 151.183 215.837 C 150.04 215.273 143.275 215.107 142.491 215.226 C 142.083 215.287 141.214 214.352 141.35 214.742 C 143.801 221.742 140.921 217.41 139.975 219.434 C 137.026 225.743 140.823 219.272 140.687 223.559 C 140.613 225.892 137.761 236.098 138.159 237.783 C 138.405 238.826 147.028 250.364 143.269 251.35 C 137.252 252.929 127.815 245.11 123.318 240.724 C 122.257 239.69 121.77 237.095 120.327 237.435 C 118.999 237.748 122.473 240.256 119.918 241.3 C 118.568 241.852 115.049 242.316 115.555 240.947 C 115.851 240.148 117.462 238.355 116.659 238.641 C 115.865 238.924 115.493 239.894 114.762 240.314 C 113.909 240.804 109.613 239.098 108.871 239.494 C 102.369 242.964 103.659 246.72 96.464 248.109 C 95.553 248.285 94.881 246.596 93.985 246.84 C 83.99 249.561 98.657 248.881 90.769 250.079 C 88.067 250.489 80.668 246.554 79.881 250.293 C 79.687 251.213 88.176 255.44 88.66 255.549 C 89.405 255.718 87.562 252.976 88.257 253.293 C 91.409 254.731 86.983 257.177 92.827 256.822 C 100.125 256.378 94.368 251.139 95.49 250.632 C 96.433 250.205 97.56 250.988 98.588 250.867 C 104.779 250.137 103.497 252.458 104.032 257.87 C 104.326 260.841 92.332 282.373 89.707 281.012 C 87.626 279.933 86.84 277.25 85.025 275.767 C 83.274 274.338 81.197 273.339 79.147 272.388 C 77.988 271.85 76.525 272.041 75.463 271.331 C 72.566 269.396 70.592 267.131 67.564 265.246 C 66.064 264.313 64.209 263.945 62.862 262.803 C 62.354 262.373 62.634 260.244 62.392 260.864 C 60.362 266.07 66.036 264.029 58.493 261.741 C 57.914 261.565 59.05 262.852 59.513 263.242 C 62.82 266.026 71.401 273.705 74.651 276.367 C 76.576 277.943 78.839 279.072 81.068 280.175 C 82.688 280.976 89.785 279.384 89.991 281.996 C 90.041 282.628 88.994 283.221 89.309 283.771 C 89.559 284.207 90.243 283.323 90.746 283.312 C 91.694 283.293 92.759 284.181 93.568 283.685 C 103.958 277.311 97.198 280.093 101.385 275.259 C 102.52 273.948 103.712 276.407 103.832 277.052 C 104.856 282.531 105.801 288.852 104.252 294.466 C 102.435 301.052 99.344 307.897 100.568 314.808 C 101.418 319.614 106.792 321.646 110.421 323.886 C 111.463 324.529 115.141 329.588 116.172 330.738 C 120.029 335.038 113.015 344.833 112.73 349.779 C 112.673 350.751 120.835 355.984 121.753 357.557 C 123.418 360.41 118.103 363.327 119.68 365.98 C 123.29 372.053 121.986 363.134 124.603 372.571 C 127.159 381.788 127.332 392.557 124.236 401.135 C 123.159 404.12 119.085 405.798 117.261 408.735 C 116.2 410.445 114.341 417.42 112.584 417.99 C 107.08 419.775 106.924 419.211 101.689 416.645 C 100.925 416.271 102.228 413.55 98.991 411.653 C 95.216 409.44 82.64 405.234 80.17 402.874 C 77.12 399.96 74.196 396.886 71.617 393.55 C 70.291 391.835 70.092 389.332 68.535 387.824 C 64.497 383.915 59.02 381.652 55.133 377.592 C 52.364 374.701 51.882 366.767 52.261 363.394 C 52.628 360.129 55.31 359.108 53.464 355.936 C 50.68 351.149 49.47 349.251 45.959 344.969 C 45.555 344.476 47.49 343.784 47.006 343.37 C 46.563 342.991 45.507 344.445 45.337 343.888 C 44.976 342.706 46.701 341.302 46.053 340.249 C 45.606 339.522 44.963 342.251 44.157 341.97 C 42.761 341.485 35.016 336.662 33.799 333.622 C 33.372 332.554 36.328 332.166 36.091 331.04 C 35.613 328.776 34.791 331.791 34.512 328.568 C 34.37 326.922 35.494 324.368 33.811 322.924 C 30.064 319.711 28.215 324.185 25.533 323.525 C 23.346 322.987 24.238 320.64 21.92 319.819 C 19.935 319.115 16.94 322.18 15.643 320.522 C 13.523 317.811 15.941 312.238 12.938 310.557 C 7.469 307.496 14.912 320.62 14.396 321.025 C 5.391 328.101 10.289 324.161 5.067 323.515 C 3.556 323.328 0.5 323.522 0.5 323.522 L 0.5 264.516 C 0.5 264.516 3.67 265.159 5.172 264.742 C 13.832 262.337 6.835 258.387 19.991 259.982 C 19.999 259.983 20.56 270.843 24.1 271.463 C 26.034 271.801 24.241 266.612 26.076 265.913 C 31.237 263.947 33.41 269.177 38.867 268.048 C 41.897 267.422 36.032 263.338 40.989 262.438 C 47.562 261.246 49.613 263.196 55.443 259.707 C 57.205 258.653 58.127 262.919 59.759 258.406 C 60.817 255.479 57.673 250.607 58.984 248.204 C 59.756 246.787 69.07 241.811 68.889 241.534 C 65.861 236.875 64.488 238.724 68.973 237.914 C 70.309 237.673 66.229 238.029 64.908 237.721 C 62.457 237.15 61.931 235.764 59.709 235.106 C 57.264 234.381 54.584 234.787 52.12 234.125 C 51.171 233.87 53.452 232.294 53.144 231.361 C 53.048 231.07 52.25 231.419 52.258 231.113 C 52.277 230.397 53.173 229.899 53.201 229.183 C 53.217 228.779 51.816 229.574 51.988 229.208 C 52.484 228.16 55.837 227.062 52.382 225.19 C 45.382 221.397 50.576 226.269 46.811 225.977 C 45.948 225.91 43.467 223.799 42.901 223.81 C 35.661 223.947 43.739 225.554 40.554 227.024 C 40.279 227.151 33.653 227.274 32.951 229.626 C 32.78 230.199 33.97 230.476 34.009 231.072 C 35.017 246.382 30.437 216.069 32.995 235.198 C 33.189 236.644 40.626 232.236 43.192 235.127 C 43.864 235.883 41.604 236.227 42.093 237.956 C 42.409 239.073 44.214 236.445 44.028 238.143 C 43.831 239.936 43.805 245.66 42.103 247.009 C 41.144 247.77 38.504 248.622 38.173 249.309 C 38.073 249.518 41.996 254.558 40.957 255.751 C 39.77 257.113 38.011 254.891 37.693 254.253 C 37.279 253.421 40.928 253.38 40.132 252.901 C 36.995 251.017 34.817 253.522 33.49 248.319 L 32.725 247.74 Z M 109.446 213.617 C 108.341 214.284 108.263 214.112 109.481 214.181 L 109.446 213.617 Z M 34.775 247.486 C 36.657 244.909 32.533 244.609 34.66 247.452 L 34.775 247.486 Z M 96.004 214.943 C 96.058 214.726 96.112 214.509 96.165 214.292 L 96.004 214.943 Z M 79.155 318.998 C 81.294 316.795 84.618 315.975 86.714 313.73 C 87.585 312.796 85.521 304.519 82.048 304.563 C 80.633 304.58 80.063 306.61 78.88 307.387 C 75.017 309.923 78.757 308.175 78.879 310.877 C 79.491 324.376 74.966 304.689 78.625 318.334 L 79.155 318.998 Z M 94.458 222.465 C 92.944 219.936 89.825 223.228 87.296 222.64 C 86.14 222.372 80.274 220.892 79.21 221.994 C 77.369 223.901 80.551 226.242 77.346 226.858 C 74.025 227.496 72.244 228.445 68.517 226.285 C 67.98 225.973 71.997 219.074 67.943 220.545 C 65.919 221.279 66.165 221.626 65.152 223.8 C 62.135 230.272 67.619 229.94 72.473 232.577 C 73.869 233.335 71.871 236.735 73.371 237.257 C 81.543 240.101 78.18 231.663 82.295 230.289 C 84.574 229.528 86.952 228.905 89.354 228.826 C 90.446 228.79 90.729 231.731 92.335 229.572 C 94.492 226.672 92.333 225.541 93.715 222.935 L 94.458 222.465 Z M 199.903 210.396 C 201.251 211.546 199.587 206.574 200.172 204.984 C 200.836 203.18 202.427 205.548 202.68 205.59 C 203.426 205.715 204.482 203.819 206.041 204.622 C 207.642 205.447 203.079 208.874 204.605 209.829 C 205.344 210.292 210.218 211.372 210.633 211.724 C 211.362 212.34 208.858 213.248 209.134 214.161 C 209.716 216.089 212.248 222.532 210.095 224.234 C 209.616 224.613 208.953 223.662 208.343 223.696 C 203.359 223.972 205.992 228.936 199.828 225.769 C 196.706 224.165 198.782 229.079 195.442 223.561 C 193.061 219.628 196.898 222.115 197.92 220.357 C 198.358 219.603 196.986 218.713 197.151 217.857 C 197.339 216.883 198.567 216.372 198.872 215.428 C 199.354 213.936 199.254 212.315 199.445 210.759 L 199.903 210.396 Z M 540.792 255.283 C 532.285 246.942 539.909 254.058 540.438 253.886 C 541.306 253.604 539.922 250.984 540.815 251.172 C 543.278 251.693 546 255.42 546.125 258.033 C 546.139 258.328 542.309 255.904 540.786 256.019 L 540.792 255.283 Z M 257.864 206.933 C 249.021 201.625 261.436 208.098 253.769 207.057 C 251.751 206.784 251.428 203.12 249.423 202.764 C 249.42 202.763 240.831 204.219 240.061 203.384 C 239.056 202.296 241.778 200.358 239.618 204.95 C 239.399 205.416 238.856 204.218 238.376 204.031 C 237.779 203.799 236.518 204.554 236.458 203.916 C 236.332 202.598 240.51 200.739 239.228 201.069 C 237.196 201.59 235.369 202.979 233.188 202.198 C 231.955 201.756 235.794 197.505 237.705 198.233 C 243.854 200.576 236.672 201.205 242.354 201.76 C 244.804 201.999 243.406 196.1 245.96 195.654 C 250.75 194.819 255.621 194.445 260.479 194.248 C 269.165 193.896 259.397 194.955 264.409 196.291 C 265.907 196.69 269.647 195.55 269.01 196.963 C 268.746 197.546 266.521 197.816 268.047 198.717 C 271.414 200.703 274.104 201.574 277.099 202.19 C 279.114 202.604 273.141 204.163 271.127 203.743 C 268.247 203.142 264.899 199.812 261.854 201.831 C 261.446 202.102 262.524 202.984 262.129 203.274 C 261.408 203.806 260.182 203.581 259.643 204.297 C 259.305 204.745 267.118 202.924 258.377 207.031 L 257.864 206.933 Z M 646.665 261.293 C 643.315 260.562 645.583 256.231 645.79 253.858 C 645.897 252.631 644.768 251.356 645.217 250.209 C 645.413 249.706 650.152 248.162 650.451 249.555 C 652.387 258.592 652.826 266.425 647.967 260.965 M 309.937 205.132 C 310.948 205.828 310.856 207.165 309.427 204.895 L 309.937 205.132 Z M 282.396 160.234 C 282.285 160.122 282.175 160.01 282.064 159.898 L 282.396 160.234 Z M 315.889 153.785 C 315.852 153.798 315.815 153.81 315.778 153.823 L 315.889 153.785 Z M 550.299 262.841 C 550.235 262.801 550.172 262.761 550.109 262.721 L 550.299 262.841 Z M 243.273 157.42 C 243.385 157.308 243.498 157.196 243.611 157.084 L 243.273 157.42 Z M 549.061 260.546 C 551.36 262.887 544.787 258.12 548.301 259.863 M 438.683 430.9 C 430.112 441.759 439.585 424.518 438.909 430.239 L 438.683 430.9 Z M 154.982 278.547 C 154.955 278.468 154.928 278.39 154.902 278.312 L 154.982 278.547 Z M 442.56 377.106 C 441.055 380.412 436.926 375.187 442.34 376.782 L 442.56 377.106 Z M 184.448 173.915 C 186.114 176.284 181.763 174.153 181.337 173.304 C 177.93 166.518 182.008 168.347 184.267 172.881 M 145.01 245.795 C 154.742 247.023 148.714 254.17 145.468 245.913 L 145.01 245.795 Z M 294.399 195.728 C 298.635 196.513 294.615 197.271 294.101 195.689 L 294.399 195.728 Z M 28.511 332.926 C 28.259 332.092 28.158 332.104 28.695 332.682 L 28.511 332.926 Z M 350.888 204.024 C 349.953 203.448 349.842 203.663 350.671 203.332 L 350.888 204.024 Z M 550.917 273.203 C 551.181 272.892 551.446 272.581 551.711 272.271 M 650.405 80.003 C 644.659 80.505 640.793 76.206 636.295 73.584 C 635.834 73.315 637.86 74.924 637.343 74.792 C 634.459 74.053 632.251 71.179 629.284 70.943 C 627.495 70.8 627.946 66.273 625.845 66 C 622.17 65.524 627.683 68.683 627.646 69.595 C 627.569 71.449 617.247 70.876 615.878 69.579 C 614.909 68.663 617.134 67.208 617.97 66.169 C 618.127 65.973 615.844 65.432 617.317 64.891 C 618.413 64.489 619.819 64.789 620.713 64.039 C 620.984 63.812 618.669 63.535 618.664 62.821 C 618.662 62.525 619.305 62.324 619.145 62.075 C 618.897 61.691 617.882 62.038 617.864 61.581 C 617.83 60.698 619.375 60.016 619.033 59.202 C 618.642 58.275 616.924 58.692 616.312 57.893 C 615.997 57.482 617.489 58.029 617.848 57.655 C 618.595 56.879 618.247 57.063 618.961 56.187 C 619.237 55.848 623.697 56.397 624.485 56.518 C 626.837 56.882 625.975 58.512 627.931 59.667 C 632.085 62.119 633.153 54.256 635.056 62.725 C 635.287 63.755 637.009 61.509 637.303 60.496 C 638.08 57.821 634.281 56.675 637.676 52.768 C 640.882 49.078 641.769 51.892 644.98 53.261 C 647.245 54.226 643.27 51.586 644.09 51.542 C 645.033 51.492 645.897 52.347 646.835 52.241 C 648.08 52.101 650.155 49.597 650.321 50.838 C 651.594 60.333 650.44 69.998 650.5 79.577 L 650.405 80.003 Z M 649.962 50.79 C 641.682 53.952 649.826 50.166 646.627 50.003 C 645.421 49.941 644.467 51.787 643.307 51.452 C 642.409 51.192 643.011 49.52 642.43 48.788 C 642.073 48.339 641.358 48.224 640.787 48.28 C 640.54 48.304 640.681 49.167 640.523 48.976 C 636.894 44.573 639.296 46.593 639.098 44.193 C 638.957 42.479 633.866 41.249 634.406 38.261 C 635.535 32.019 642.784 37.824 643.018 37.331 C 643.224 36.896 642.107 36.306 642.474 35.996 C 655.878 24.659 650.5 33.875 650.5 50.004 L 649.962 50.79 Z M 33.36 167.523 C 33.323 169.144 32.995 170.785 33.247 172.388 C 33.501 173.999 35.799 176.056 34.55 177.104 C 31.116 179.982 31.345 167.207 31.654 166.139 C 31.803 165.623 32.835 166.236 33.184 166.644 L 33.36 167.523 Z M 29.232 118.914 C 28.377 117.279 25.199 122.833 26.646 115.234 C 26.795 114.449 29.139 114.423 29.042 115.216 C 28.943 116.03 28.097 116.629 27.997 117.443 C 27.963 117.721 29.719 114.771 30.281 115.167 C 31.265 115.862 32.502 116.431 33.031 117.514 C 34.139 119.785 29.751 123.434 29.216 119.5 L 29.232 118.914 Z M 112.746 76.379 C 121.685 74.383 129.477 75.156 138.951 73.511 C 140.213 73.292 143.757 71.949 142.703 72.677 C 138.106 75.849 135.437 78.885 145.452 80.921 C 148.382 81.517 153.998 77.421 154.404 80.383 C 154.521 81.234 152.631 79.949 151.83 80.258 C 148.239 81.644 153.098 84.681 153.406 85.122 C 155.257 87.765 147.424 82.57 144.254 81.963 C 142.972 81.718 141.616 82.268 140.338 82.003 C 138.718 81.667 137.325 80.582 135.717 80.193 C 128.649 78.481 124.442 80.88 117.608 79.484 C 115.517 79.056 118.339 78.6 116.789 77.317 C 114.438 75.371 113.068 79.292 112.418 77.145 L 112.746 76.379 Z M 191.082 180.141 C 196.438 177.129 197 188.952 199.255 186.756 C 199.566 186.454 203.581 182.611 204.367 186.1 C 204.643 187.322 201.86 186.184 200.607 186.142 C 200.312 186.132 201.315 186.774 201.052 186.91 C 199.743 187.583 198.485 189.52 197.131 188.943 C 193.895 187.564 197.604 187.28 196.112 187.924 C 193.88 188.887 189.792 181.895 190.745 180.367 L 191.082 180.141 Z M 212.714 189.644 C 221.833 198.823 212.065 191.472 214.269 194.656 C 218.013 200.066 210.61 193.859 209.84 195.161 C 209.206 196.231 209.33 198.114 208.142 198.485 C 206.751 198.919 207.857 195.407 208.564 194.133 C 211.976 187.981 205.614 200.931 210.256 193.94 C 211.856 191.529 210.441 189.774 211.349 189.365 M 229.852 182.532 C 229.833 182.315 229.814 182.098 229.794 181.88 L 229.852 182.532 Z M 537.314 265.352 C 537.714 265.946 538.114 266.54 538.514 267.134 M 151.505 317.229 C 151.007 316.365 150.892 316.696 151.567 316.179 M 176.336 225.881 C 181.306 225.204 179.708 223.471 185.151 227.238 C 185.951 227.792 187.322 227.407 187.916 228.178 C 189.001 229.588 184.639 229.955 182.861 229.893 C 180.255 229.802 178.201 227.719 176.28 226.365 L 176.336 225.881 Z M 128.769 315.525 C 130.375 316.655 132.085 317.647 133.585 318.913 C 135.271 320.335 132.437 319.812 132.43 319.99 C 132.289 323.605 148.489 337.368 141.387 344.092 C 135.865 349.321 131.89 337.249 130.51 335.321 C 129.772 334.291 124.352 331.866 125.021 328.905 C 126.323 323.143 129.217 321.945 127.009 314.978 M 390.566 180.717 C 390.575 180.661 390.585 180.606 390.594 180.55 L 390.566 180.717 Z M 164.223 81.842 C 164.804 81.096 165.76 80.528 165.966 79.605 C 166.149 78.787 164.457 77.43 165.26 77.192 C 166.203 76.912 166.574 78.727 167.456 79.163 C 168.309 79.586 169.134 77.284 169.951 77.773 C 171.837 78.901 169.552 83.862 169.506 84.698 C 169.419 86.306 172.686 87.371 172.007 88.831 C 171.605 89.694 166.895 93.807 165.842 95.322 C 163.606 98.54 174.12 91.339 169.107 99.184 C 168.644 99.908 162.636 95.445 162.767 94.751 C 162.835 94.387 164.993 92.612 163.867 91.661 C 154.665 83.888 153.616 87.074 155.248 86.204 C 157.858 84.814 160.727 83.978 163.466 82.865 M 179.062 135.516 C 180.555 133.555 186.091 139.776 183.908 141.835 C 183.484 142.235 183.292 140.467 182.715 140.554 C 182.196 140.632 182.541 142.404 182.173 142.03 C 181.23 141.071 180.825 139.622 179.768 138.791 C 178.89 138.102 177.813 142.074 176.906 139.632 C 175.779 136.6 176.456 136.568 177.928 135.866 M 171.477 95.888 C 172.844 94.922 170.982 96.05 174.538 96.982 C 181.357 98.77 178.633 99.207 182.641 104.155 C 184.967 107.026 190.3 108.62 190.518 112.581 C 190.714 116.136 188.991 112.364 188.501 112.022 C 187.157 111.083 188.946 115.278 189.345 116.868 C 189.464 117.341 187.787 115.401 187.535 116.552 C 186.633 120.666 187.21 119.046 184.347 121.038 C 183.698 121.491 186.134 121.495 186.394 122.242 C 186.894 123.679 186.962 125.401 186.38 126.807 C 185.878 128.018 184.159 125.281 182.874 125.021 C 179.964 124.432 179.672 132.468 179.197 133.612 C 178.807 134.552 176.653 136.16 176.556 135.147 C 176.342 132.916 176.104 130.595 176.659 128.423 C 177.131 126.571 178.431 125.022 179.538 123.464 C 179.98 122.842 181.419 122.698 181.257 121.951 C 180.742 119.567 178.786 117.731 177.815 115.493 C 176.696 112.91 179.166 117.949 180.183 116.281 C 181.393 114.296 180.346 109.38 179.525 107.751 C 178.185 105.092 170.642 101.53 170.821 98.439 C 171.107 93.505 174.258 103.88 172.866 96.979 C 172.548 95.401 169.715 99.097 170.83 96.21 L 171.477 95.888 Z M 534.147 249.293 C 534.749 252.97 530.293 247.583 533.593 248.692 L 534.147 249.293 Z M 648.021 228.94 C 647.674 230.421 651.426 230.735 649.195 233.43 C 648.245 234.579 644.407 235.038 644.724 233.581 C 644.947 232.554 645.894 228.532 648.612 228.141 L 648.021 228.94 Z M 173.061 232.009 C 175.73 230.769 179.341 231.982 182.385 231.729 C 183.546 231.632 188.484 230.728 188.492 230.73 C 190.227 230.95 198.219 234.498 198.6 236.686 C 199.579 242.31 182.081 235.007 179.889 234.644 C 176.797 234.132 170.751 236.67 170.551 233.543 C 170.512 232.94 171.634 233.009 172.175 232.742 M 220.121 205.391 C 218.908 208.3 212.452 209.327 213.425 211.712 C 215.497 216.79 219.377 208.918 219.605 209.401 C 220.262 210.788 217.31 212.335 217.988 213.712 C 218.746 215.25 221.584 214.444 222.723 215.727 C 223.244 216.314 222.401 217.68 221.627 217.81 C 220.088 218.071 216.381 215.132 217.13 216.502 C 217.975 218.045 220.564 222.167 218.958 221.451 C 214.679 219.546 213.616 214.661 212.769 210.437 C 212.317 208.183 216.691 208.009 218.456 206.536 C 218.457 206.535 220.177 201.698 220.247 204.782 L 220.121 205.391 Z M 201.996 235.377 C 205.479 234.552 206.292 231.571 209.466 231.227 C 210.16 231.152 215.463 231.083 214.603 231.678 C 214.131 232.004 201.198 239.007 199.319 238.915 C 198.185 238.86 199.793 236.485 200.7 235.802 M 642.455 206.519 C 645.459 210.715 637.975 213.517 635.532 210.146 C 635.244 209.749 636.911 209.807 636.764 209.338 C 636.544 208.632 635.049 208.856 634.902 208.131 C 634.757 207.418 637.426 207.644 636.866 207.178 C 636.41 206.798 635.468 207.287 635.125 206.802 C 634.794 206.335 636.232 206.411 636.659 206.03 C 636.893 205.82 636.363 204.828 636.528 205.096 C 637.802 207.167 639.545 207.528 641.842 205.896 L 642.455 206.519 Z M 548.7 274.453 C 548.715 274.482 548.731 274.512 548.746 274.542 L 548.7 274.453 Z M 389.82 224.08 C 389.171 223.262 389.037 223.254 389.746 223.684 L 389.82 224.08 Z M 307.237 216.216 C 307.089 215.779 307.012 216.641 306.145 215.823 M 217.497 339.461 C 218.466 340.622 217.219 339.409 218.563 338.33 C 218.982 337.993 219.666 339.18 219.456 339.675 C 218.33 342.333 216.457 340.314 216.858 339.923 L 217.497 339.461 Z M 24.133 214.882 C 23.878 215.607 23.97 215.621 23.854 214.873 L 24.133 214.882 Z M 332.571 209.748 C 332.762 211.528 328.492 211.32 331.522 209.208 M 552.614 269.776 C 552.727 269.743 552.841 269.711 552.954 269.678 L 552.614 269.776 Z M 644.158 168.391 C 645.917 171.101 642.782 165.856 642.782 169.007 C 642.782 170.073 645.328 169.662 645.484 170.716 C 645.701 172.191 642.073 170.849 642.685 171.629 C 643.239 172.333 645.296 171.591 645.232 172.484 C 645.166 173.418 643.825 174.016 643.887 174.95 C 643.982 176.407 647.35 172.438 648.085 173.7 C 649.151 175.531 645.697 176.284 644.982 176.521 C 643.989 176.849 644.714 178.683 644.594 179.014 C 644.183 180.151 643.184 181.003 642.721 182.12 C 642.435 182.81 644.482 183.476 643.947 183.997 C 643.418 184.512 642.242 183.498 641.734 184.034 C 640.958 184.854 643.298 186.278 642.751 187.266 C 642.487 187.742 641.456 187.395 641.247 187.896 C 641.006 188.471 642.896 188.961 642.415 189.357 C 639.83 191.482 641.323 186.531 641.35 190.929 C 641.356 191.862 639.618 190.182 638.696 190.041 C 638.123 189.953 636.636 190.76 637.194 190.916 C 639.315 191.507 639.643 193.614 639.24 193.411 C 638.142 192.855 639.343 190.556 637.443 191.954 C 637.186 192.144 638.177 191.557 638.391 191.795 C 638.789 192.24 639.965 195.875 639.303 197.037 C 638.71 198.076 636.577 194.468 636.16 194.029 C 635.856 193.71 636.933 195.125 636.528 195.298 C 635.882 195.573 634.183 195.249 634.503 195.873 C 635.193 197.219 638.679 196.61 638.453 198.105 C 637.925 201.598 630.989 199.276 630.743 199.402 C 628.698 200.451 625.882 204.86 624.771 202.848 C 624.129 201.686 625.691 201.157 622.485 202.189 C 621.507 202.504 615.546 211.585 614.351 210.869 C 613.299 210.238 614.169 207.702 613.99 207.593 C 609.936 205.132 611.663 202.502 613.517 200.088 C 613.714 199.831 612.748 200.206 612.557 199.945 C 612.149 199.389 614.71 198.647 614.037 198.498 C 613.386 198.354 612.809 199.926 612.301 199.494 C 611.481 198.796 614.567 198.342 614.642 197.267 C 614.678 196.745 613.536 197.093 613.17 196.719 C 612.455 195.99 615.075 195.896 615.84 195.221 C 616.334 194.785 614.55 195.606 613.893 195.558 C 613.689 195.543 613.404 195.198 613.548 195.053 C 615.382 193.199 614.498 194.019 617.002 194.231 C 617.702 194.29 615.867 193.401 615.296 192.992 C 614.647 192.526 618.087 193.271 617.659 192.596 C 617.355 192.114 616.432 192.295 616.146 191.803 C 615.492 190.678 619.8 191.765 619.813 190.464 C 619.823 189.386 618.698 188.582 618.44 187.536 C 618.252 186.774 619.588 188.647 620.295 188.988 C 621.026 189.34 620.07 187.358 620.196 186.556 C 620.307 185.858 621.699 184.499 620.998 184.591 C 620.436 184.666 620.438 185.652 619.94 185.922 C 617.045 187.494 623.123 180.044 623.781 176.816 C 624.327 174.136 620.216 172.696 620.672 171.741 C 621.058 170.933 620.964 168.977 621.797 169.302 C 622.564 169.602 624.425 170.977 624.085 170.228 C 624.069 170.193 620.386 167.614 623.436 167.048 C 624.872 166.782 626.181 168.191 627.638 168.294 C 630.204 168.474 629.741 164.866 634.102 166.029 C 634.47 166.127 635.576 168.08 636.985 167.167 C 637.676 166.72 636.917 169.468 637.738 169.518 C 638.542 169.566 638.558 168.034 639.262 167.643 C 639.536 167.49 640.029 168.593 639.943 168.292 C 639.787 167.751 638.602 167.222 639.038 166.866 C 644.539 162.377 639.83 168.413 641.252 168.07 C 644.573 167.268 636.149 166.187 643.182 167.546 M 649.192 215.115 C 649.088 215.143 648.983 215.171 648.879 215.199 L 649.192 215.115 Z M 54.957 252.879 C 58.46 251.672 55.475 253.979 54.513 253.246 L 54.957 252.879 Z M 533.57 237.682 C 535.809 240.255 537.831 245.794 538.437 247.331 C 539.433 249.856 543.966 252.805 535.338 246.831 C 535.069 246.645 536.164 246.7 536.207 246.375 C 536.357 245.235 536.042 244.018 535.517 242.994 C 530.987 234.146 534.287 242.134 527.888 235.822 C 526.601 234.552 531.527 236.364 533.14 237.182 L 533.57 237.682 Z M 116.298 322.136 C 116.334 322.008 116.37 321.881 116.405 321.753 L 116.298 322.136 Z M 615.488 298.799 C 614.832 298.216 614.745 298.238 615.437 298.535 L 615.488 298.799 Z M 534.229 139.925 C 534.256 141.107 531.078 149.203 530.743 148.164 C 530.493 147.39 531.868 139.511 532.339 138.503 C 532.411 138.35 534.39 136.036 534.348 138.518 M 611.895 149.579 C 610.737 150.45 613.042 151.707 609.782 151.145 C 608.877 150.99 607.151 144.834 607.742 145.009 C 608.616 145.269 608.342 147.1 609.231 147.305 C 610.026 147.489 608.679 142.934 609.537 142.68 C 610.43 142.416 610.841 144.37 611.361 144.488 C 611.946 144.621 613.464 144.139 613.154 144.653 C 612.327 146.028 608.794 148.174 610.35 148.565 C 610.71 148.656 616.955 147.633 612.355 149.327 L 611.895 149.579 Z M 602 145.272 C 604.431 148.166 601.602 146.095 601.304 147.475 C 600.899 149.349 605.989 145.194 599.703 150.791 C 598.591 151.781 604.467 149.878 604.137 151.33 C 603.642 153.507 599.974 153.105 598.248 154.521 C 597.256 155.336 597.593 157.33 596.459 157.932 C 595.815 158.273 595.836 156.527 595.23 156.122 C 594.795 155.832 594.464 159.101 593.62 157.385 C 593.224 156.58 592.996 155.659 593.013 154.762 C 593.023 154.263 593.884 153.889 593.695 153.426 C 592.061 149.421 589.641 150.109 591.919 146.399 C 593.191 144.326 591.173 143.19 594.082 142.639 C 595.888 142.298 594.66 146.345 595.544 147.957 C 596.589 149.862 594.654 142.15 596.743 141.55 C 597.768 141.256 597.536 144.462 598.565 144.182 C 599.637 143.89 598.135 141.032 599.241 140.918 C 601.307 140.704 606.916 144.321 602.312 145.075 L 602 145.272 Z M 606.717 140.999 C 607.331 149.198 597.244 137.838 597.619 137.041 C 600.104 131.768 603.108 136.141 605.994 137.1 C 608.142 137.813 608.661 137.334 606.999 140.381 L 606.717 140.999 Z M 634.377 161.761 C 634.452 162.081 635.24 163.821 634.601 164.705 C 633.89 165.689 632.186 164.196 630.98 164.329 C 630.531 164.378 632.429 165.007 632.02 165.199 C 631.121 165.62 630.022 165.393 629.042 165.236 C 628.84 165.204 628.986 164.673 628.782 164.68 C 628.036 164.708 627.042 165.787 626.601 165.185 C 626.219 164.665 625.777 163.476 625.229 163.818 C 624.839 164.062 625.295 165.205 624.839 165.142 C 624.259 165.063 624.434 163.346 623.928 163.641 C 622.386 164.538 624.515 165.833 622.819 165.848 C 621.488 165.86 620.333 163.466 619.2 164.164 C 618.529 164.578 619.52 165.987 618.934 166.514 C 617.963 167.386 616.122 163.628 616.05 163.433 C 614.435 159.078 616.144 161.529 617.667 161.548 C 618.251 161.555 618.567 160.167 619.06 160.482 C 619.804 160.959 619.46 163.743 619.923 162.99 C 620.776 161.604 615.235 163.722 621.164 161.317 C 621.604 161.139 619.955 160.306 620.392 160.122 C 622.013 159.437 621.807 161.532 622.867 162.23 C 623.205 162.452 622.541 161.348 622.776 161.02 C 623.401 160.149 624.247 159.372 625.227 158.938 C 626.172 158.519 624.409 161.062 624.814 162.013 C 625.063 162.596 625.142 160.379 625.776 160.372 C 626.722 160.362 627.237 161.63 628.117 161.977 C 630.038 162.732 625.495 158.544 626.183 158.545 C 626.794 158.546 627.611 159.956 627.814 159.38 C 628.085 158.608 625.425 157.376 626.233 157.503 C 626.754 157.584 627.069 158.831 627.47 158.49 C 628.17 157.894 627.665 155.366 628.413 155.899 C 629.03 156.339 628.969 157.371 629.533 157.877 C 629.856 158.167 630.772 157.29 630.826 157.721 C 630.907 158.38 629.827 159.155 630.284 159.637 C 630.677 160.05 630.955 158.523 631.521 158.454 C 632.037 158.391 633.968 160.799 634.398 161.5 L 634.377 161.761 Z M 626.049 156.537 C 621.757 162.122 619.437 160.011 619.381 158.844 C 619.214 155.338 620.736 158.262 622.262 156.951 C 622.738 156.543 623.23 153.503 627.203 155.31 M 615.607 157.686 C 614.875 158.531 612.738 162.596 613.646 163.756 C 615.026 165.52 615.669 163.212 615.609 166.193 C 615.593 167.014 614.889 168.575 613.605 167.977 C 613.05 167.718 609.928 161.552 610.639 160.907 C 611.572 160.061 613.088 160.009 613.956 159.097 C 614.819 158.189 612.993 155.777 615.788 156.768 L 615.607 157.686 Z M 595.545 218.666 C 594.549 219.347 593.468 219.919 592.556 220.709 C 592.321 220.912 593.155 220.405 593.458 220.475 C 594.704 220.762 591.931 221.351 593.572 222.486 C 594.003 222.783 595.674 221.764 595.258 223.576 C 595.179 223.921 594.559 227.818 592.927 227.722 C 592.204 227.679 594.003 226.001 593.4 225.602 C 592.623 225.089 591.477 226.243 590.62 225.879 C 590.123 225.668 592.322 225.419 591.981 225 C 590.901 223.675 587.158 223.877 587.657 222.241 C 589.29 216.899 592.7 217.941 595.647 218.516 L 595.545 218.666 Z M 604.276 168.661 C 604.365 170.068 610.186 164.185 611.043 167.85 C 611.797 171.073 608.843 169.633 607.949 170.955 C 607.185 172.083 612.145 171.5 611.006 173.766 C 608.105 179.536 612.458 173.196 608.753 179.092 C 608.398 179.658 610.486 178.901 610.709 179.531 C 611.614 182.078 609.504 178.789 609.217 180.323 C 609.095 180.973 610.938 181.824 610.297 181.988 C 609.801 182.114 609.219 181.126 608.847 181.478 C 608.373 181.926 609.915 183.469 609.267 183.39 C 608.75 183.327 607.433 182.371 607.428 182.398 C 607.048 184.559 609.543 190.114 608.722 190.587 C 607.594 191.237 606.071 192.196 604.939 191.554 C 604.153 191.109 605.744 189.925 606.296 189.209 C 606.803 188.552 604.892 188.244 604.08 188.072 C 603.696 187.99 603.8 186.678 603.58 187.004 C 602.492 188.615 602.843 196.014 600.816 194.428 C 599.824 193.652 599.687 189.722 599.367 190.94 C 599.009 192.302 599.578 196.179 598.667 195.105 C 595.629 191.523 598.012 189.385 598.023 186.176 C 598.028 184.951 594.493 184.647 594.92 182.938 C 595.705 179.794 597.195 183.951 597.23 184.017 C 598.152 185.754 604.493 182.091 604.73 179.783 C 604.808 179.027 603.811 178.504 603.69 177.753 C 603.466 176.373 605.989 175.42 605.672 174.058 C 605.588 173.696 605.115 174.9 604.783 174.733 C 603.063 173.865 599.621 165.979 602.792 166.226 C 603.277 166.263 603.09 167.874 603.436 167.534 C 604.927 166.066 604.368 163.002 608.779 164.266 C 612.826 165.427 604.989 168.589 604.347 168.556 L 604.276 168.661 Z M 553.04 275.037 C 553.133 275.05 553.227 275.063 553.32 275.077 L 553.04 275.037 Z M 86.868 253.906 C 87.018 253.992 87.168 254.077 87.317 254.163 L 86.868 253.906 Z M 539.586 239.901 C 539.306 238.745 539.149 239.215 540.52 238.743 M 264.258 210.546 C 269.212 217.517 267.003 211.069 270.167 214.818 C 271.759 216.704 272.479 219.347 274.406 220.89 C 275.623 221.864 277.621 221.107 278.979 221.873 C 282.628 223.932 290.278 229.916 291.396 234.497 C 292.421 238.7 291.533 247.987 290.147 251.91 C 289.535 253.642 286.819 253.916 286.032 255.576 C 285.735 256.202 284.638 254.435 284.083 254.851 C 281.596 256.717 282.927 257.477 279.401 257.115 C 274.511 256.613 278.499 256.068 274.304 253.281 C 273.937 253.037 273.553 254.149 273.162 253.945 C 272.62 253.664 272.996 252.231 272.387 252.284 C 271.644 252.349 271.156 254.834 271.071 254.093 C 270.908 252.682 277.735 252.45 270.759 249.785 C 268.675 248.988 270.004 254.135 269.688 254.508 C 269.05 255.259 265.552 251.611 264.619 251.519 C 257.309 250.799 255.683 257.55 252.116 261.753 C 250.485 263.675 245.021 269.501 241.981 269.025 C 240.351 268.77 241.109 265.689 239.957 264.508 C 235.862 260.311 237.193 263.123 231.417 258.731 C 231.324 258.661 231.476 258.414 232.514 258.212 C 233.682 257.985 230.443 256.938 229.72 255.994 C 228.749 254.726 228.199 253.143 227.843 251.586 C 227.678 250.865 235.095 241.953 235.419 241.431 C 236.343 239.947 233.888 235.98 235.098 235.159 C 236.495 234.212 236.736 236.448 237.487 233.266 C 237.743 232.18 236.428 228.132 238.645 227.009 C 239.517 226.567 240.647 227.062 241.544 227.449 C 241.844 227.579 241.53 228.502 241.836 228.386 C 245.568 226.964 242.723 225.711 243.054 222.787 C 243.255 221.013 247.329 218.923 245.863 218.371 C 243.744 217.572 237.83 221.328 250.378 217.282 C 251.506 216.918 253.3 214.913 253.704 216.027 C 255.673 221.466 248.161 223.083 262.988 222.906 C 267.016 222.858 258.722 204.313 263.473 210.222 L 264.258 210.546 Z M 229.557 338.896 C 228.628 339.323 228.689 339.343 229.596 338.709 L 229.557 338.896 Z M 327.074 339.93 C 339.484 349.363 326.491 337.168 328.813 336.623 C 330.266 336.283 330.925 339.119 332.407 339.292 C 333.558 339.427 334.521 338.232 335.313 337.386 C 335.908 336.751 334.473 334.923 335.331 334.776 C 336.292 334.61 340.676 334.722 339.926 332.761 C 339.504 331.658 337.001 326.404 338.659 325.541 C 339.339 325.188 342.786 328.738 343.554 328.809 C 344.534 328.899 343.642 326.834 343.526 325.857 C 343.442 325.152 344.957 326.08 345.654 325.945 C 351.118 324.886 357.787 333.422 360.723 335.844 C 363.209 337.895 359.475 336.689 362.947 338.17 C 363.699 338.491 360.614 338.451 360.747 339.258 C 361.052 341.115 362.738 342.47 363.468 344.205 C 363.793 344.978 363.261 346.112 363.87 346.688 C 364.988 347.745 365.448 344.042 366.336 342.786 C 366.868 342.034 367.792 345.403 368.059 344.647 C 368.429 343.597 368.286 340.298 368.632 341.357 C 369.635 344.422 369.802 347.715 370.754 350.797 C 371.305 352.584 372.781 347.93 372.411 352.162 C 372.235 354.173 368.858 356.813 370.544 357.924 C 371.215 358.367 372.503 357.93 372.842 358.66 C 373.106 359.228 371.773 359.407 371.492 359.967 C 370.017 362.902 369.773 363.877 373.123 369.553 C 374.897 372.56 380.109 369.144 383.596 369.334 C 384.161 369.365 383.53 370.761 384.056 370.969 C 385.696 371.62 387.549 371.681 389.311 371.601 C 389.603 371.587 389.101 370.829 389.375 370.726 C 390.546 370.288 391.238 371.935 392.14 372.615 C 396.639 376.009 401.333 378.362 402.985 385.129 C 403.718 388.129 396.874 377.837 396.533 377.611 C 391.998 374.607 395.603 378.95 393.999 379.495 C 393.214 379.762 394.062 377.628 393.45 377.069 C 392.704 376.389 392.316 374.067 389.949 373.07 C 387.326 371.965 385.439 373.407 386.165 375.796 C 386.257 376.097 386.146 374.894 385.832 374.913 C 383.868 375.033 381.865 375.192 379.998 375.814 C 377.689 376.583 376.221 375.309 374.651 375.207 C 373.441 375.129 373.135 377.407 370.612 376.183 C 370.124 375.947 371.139 374.888 370.708 374.558 C 370.676 374.533 367.539 374.688 367.209 374.492 C 365.622 373.55 367.058 372.353 365.968 371.544 C 365.579 371.254 364.759 372.041 364.516 371.621 C 359.381 362.75 362.403 368.442 362.555 361.577 C 362.581 360.43 359.036 363.847 358.432 363.246 C 356.826 361.648 359.646 361.378 359.174 358.784 C 358.507 355.111 357.96 362.609 356.704 360.675 C 356.374 360.166 356.234 359.409 356.505 358.866 C 356.89 358.094 358.225 357.997 358.454 357.166 C 358.841 355.769 355.434 357.736 354.407 358.76 C 354.055 359.11 354.814 363.212 352.963 359.591 C 352.771 359.214 352.867 360.541 352.516 360.778 C 350.155 362.373 350.279 364.494 346.78 365.873 C 346.207 366.099 346.557 364.574 346.11 364.15 C 344.807 362.914 345.006 365.54 344.737 365.652 C 343.624 366.119 341.572 362.989 341.426 364.187 C 341.239 365.719 342.961 366.915 343.303 368.421 C 344.015 371.558 340.387 370.395 340.473 370.762 C 342.069 377.641 340.668 377.334 336.271 383.138 C 336.051 383.429 344.128 382.168 344.628 382.347 C 346.356 382.963 346.888 386.366 346.87 387.412 C 346.718 396.029 341.557 394.584 338.832 399.787 C 338.156 401.078 339.423 402.79 338.92 404.158 C 338.631 404.946 337.268 404.777 336.754 405.441 C 334.321 408.583 339.111 404.893 338.867 408.826 C 338.7 411.53 335.157 412.147 333.876 414.952 C 333.365 416.073 335.882 419.126 335.757 419.132 C 335.127 419.162 334.586 418.036 334.037 418.345 C 333.141 418.849 334.271 421.539 333.264 421.33 C 330.775 420.814 332.121 419.706 330 418.317 C 328.714 417.476 330.39 421.952 329.112 422.402 C 321.831 424.963 329.803 421.791 326.885 420.12 C 324.754 418.899 321.354 421.51 319.52 419.875 C 316.803 417.451 315.313 420.678 309.232 420.657 C 306.92 420.649 303.974 421.59 302.329 419.964 C 301.401 419.045 301.839 416.888 300.612 416.443 C 299.393 416.001 298.37 418.121 297.075 418.06 C 295.783 417.998 293.124 412.361 291.758 411.755 C 291.229 411.52 289.888 412.583 290.043 412.026 C 290.402 410.743 292.711 410.001 291.104 408.946 C 288.578 407.288 290.236 408.626 287.65 409.089 C 286.248 409.34 289.096 406.502 287.536 406.199 C 286.909 406.077 285.983 407.148 285.66 406.596 C 284.229 404.146 288.219 404.134 285.237 402.274 C 282.756 400.726 280.219 399.237 277.543 398.057 C 275.271 397.056 274.209 401.304 272.437 399.653 C 271.93 399.18 276.003 391.835 274.202 390.915 C 272.944 390.273 271.342 391.161 269.966 390.846 C 266.546 390.064 265.32 386.459 263.254 384.281 C 262.894 383.902 261.75 384.228 261.795 383.708 C 261.891 382.616 263.581 382.02 263.546 380.924 C 263.483 378.925 260.648 381.384 260.63 381.383 C 259.742 381.329 261.594 379.273 260.891 378.729 C 260.186 378.184 259.071 379.27 258.23 378.977 C 254.758 377.769 256.596 371.799 258.791 370.487 C 260.225 369.63 255.763 376.497 260.695 371.946 C 261.145 371.53 259.991 370.804 260.107 370.202 C 260.512 368.11 262.672 357.802 263.986 356.872 C 270.856 352.009 267.472 359.799 270.319 360.211 C 270.91 360.297 270.325 358.921 270.708 358.462 C 270.845 358.298 277.631 361.194 278.719 361.172 C 279.53 361.156 277.388 360.241 276.749 359.742 C 276.072 359.212 270.233 354.574 270.158 354.483 C 269.634 353.841 270.414 352.796 270.196 351.997 C 269.953 351.102 269.393 350.308 268.822 349.577 C 268.42 349.062 267.493 348.945 267.322 348.314 C 264.985 339.738 269.042 336.231 272.425 329.197 C 272.95 328.104 272.182 326.514 272.982 325.603 C 274.434 323.95 277.079 323.734 278.61 322.154 C 280.721 319.974 274.76 320.644 278.993 318.6 C 279.846 318.189 281.02 318.052 281.834 318.536 C 282.341 318.838 281.93 320.706 282.298 320.245 C 283.743 318.433 287.625 313.067 288.007 312.725 C 288.857 311.966 290.464 312.731 291.352 312.016 C 292.16 311.365 292.877 308.49 294.706 307.825 C 301.551 305.336 300.947 307.775 304.889 308.005 C 309.471 308.272 310.032 305.215 314.951 308.014 C 315.789 308.491 315.788 309.862 316.59 310.399 C 316.92 310.619 316.364 309.31 316.75 309.218 C 317.881 308.948 319.125 309.152 320.224 309.53 C 322.802 310.415 322.856 314.129 322.074 314.419 C 319.169 315.5 320.421 314.757 319.881 317.717 C 319.832 317.986 319.255 317.44 319.064 317.635 C 318.543 318.169 318.017 318.871 318.025 319.616 C 318.052 321.847 319.689 323.758 320.569 325.808 C 320.786 326.313 322.352 326.251 321.982 326.657 C 321.478 327.211 320.141 326.246 319.746 326.882 C 316.694 331.8 323.861 336.933 326.716 339.796 L 327.074 339.93 Z M 348.627 378.846 C 344.992 376.701 343.24 375.464 346.766 370.382 C 347.69 369.051 348.409 373.184 349.379 374.482 C 350.559 376.062 352.309 375.623 352.694 377.788 C 353.134 380.257 349.764 381.06 349.364 378.879 L 348.627 378.846 Z M 384.192 367.782 C 380.98 368.914 373.127 371.805 373.916 365.377 C 374.008 364.628 374.591 366.742 375.062 367.333 C 375.263 367.586 375.534 366.601 375.828 366.736 C 376.708 367.141 375.858 363.03 376.433 362.688 C 377.753 361.902 378.614 367.579 378.635 367.7 C 378.767 368.458 382.449 365.919 384.052 365.628 C 385.611 365.345 385.808 367.446 384.301 367.791 L 384.192 367.782 Z" style="stroke-linecap: round; fill: rgb(17, 17, 17); stroke: rgb(17, 17, 17);"/>
  <path d="M 295.852 238.714 C 295.852 238.714 295.852 238.714 295.852 238.714 Z" fill="current" style="stroke-width: 18.111;"/>
  <path d="M 295.867 238.651 C 295.867 238.651 295.867 238.651 295.867 238.651 Z" fill="current" style="stroke-width: 1.794;"/>
  <path d="M 296.648 237.484 C 296.648 237.484 296.648 237.484 296.648 237.484 Z" fill="current" style="stroke-width: 1;"/>
  <g style="" transform="matrix(0.72538, 0, 0, 0.72538, 86.696854, 72.668358)">
    <path d="M 324.647 250 C 325.312 250.015 325.77 249.221 326.412 249.048 C 326.594 248.998 327.116 249.364 327.18 249.578 C 327.283 249.941 326.728 250.028 326.625 250.274 C 326.428 250.732 327.014 250.961 326.982 251.278 C 326.871 252.33 324.64 254.482 323.913 255.305 C 323.208 256.103 325.21 256.183 324.759 256.847 C 324.482 257.243 323.722 256.625 323.707 256.61 C 323.422 256.309 323.461 257.005 323.232 256.934 C 323.034 256.863 323.086 256.718 322.903 256.829 C 322.412 257.127 322.401 257.219 321.619 257.701 C 321.033 258.057 321.523 259.283 321.152 259.734 C 320.97 259.964 320.645 262.313 320.519 262.392 C 319.862 262.812 319.981 262.416 319.712 262.827 C 319.475 263.207 319 264.141 318.581 264.33 C 316.904 265.089 316.041 264.156 314.792 263.579 C 314.562 263.476 313.321 264.346 313.098 263.697 C 313.052 263.555 313.415 263.128 313.399 263.112 C 313.344 263.073 312.68 263.405 312.585 263.041 C 312.474 262.59 313.534 262.55 313.479 262.479 C 312.727 261.38 313.597 261.751 313.724 261.609 C 314.056 261.221 313.289 261.285 313.423 260.857 C 313.573 260.367 314.08 260.249 314.198 259.861 C 314.286 259.592 314.704 259.426 314.902 259.434 C 315.06 259.442 314.839 259.086 314.926 258.951 C 315.203 258.563 315.48 258.168 315.804 257.82 C 316.097 257.512 316.983 257.448 317.22 257.321 C 317.671 257.084 318.636 255.344 319.34 255.162 C 319.609 255.099 319.847 254.924 320.076 254.758 C 320.297 254.6 320.329 254.428 320.527 254.246 C 320.709 254.088 320.885 253.807 320.892 253.696 C 320.964 253.024 323.145 247.932 323.968 247.916 C 324.451 247.9 323.699 248.051 323.833 248.47 C 323.77 249.545 324.258 249.887 324.647 250 Z" style="fill: none; stroke-dasharray: 2; stroke-linecap: round; stroke-width: 0.2px; stroke: rgba(159, 255, 17, 0.396);"/>
    <path d="M 324.703 232.639 C 324.893 232.718 324.988 232.807 325.059 232.87 C 325.89 233.622 326.904 233.542 327.331 234.737 C 327.703 235.757 326.958 234.674 327.986 236.62 C 328.216 237.047 328.1 237.602 328.274 237.919 C 328.306 237.982 328.991 238.455 329.086 238.526 C 329.228 238.629 329.17 239.397 329.6 239.104 C 329.866 238.922 329.121 237.283 329.45 237.158 C 330.281 237.838 330.454 240.109 330.802 240.29 C 331.483 240.63 332.614 241.422 333.421 241.255 C 333.99 241.145 334.196 240.52 334.694 240.251 C 334.845 240.164 335.999 240.235 335.92 240.607 C 335.683 241.793 335.47 242.529 334.686 243.257 C 334.354 243.557 334.757 244.444 334.488 244.593 C 334.124 244.799 333.191 243.7 332.574 244.776 C 332.25 245.337 332.827 245.44 332.772 245.772 C 332.511 247.252 330.47 250.234 329.07 250.843 C 328.983 250.883 328.216 250.004 328.2 249.941 C 328.145 249.688 327.733 250.392 327.733 249.957 C 327.725 249.048 329.252 248.359 328.92 247.196 C 328.572 245.962 325.724 245.764 325.922 244.562 C 326.048 243.763 327.409 244.119 327.583 243.407 C 328.208 240.955 328.065 241.042 327.622 238.898 C 327.622 238.898 328.033 239.041 327.867 238.645 C 327.756 238.376 327.203 238.328 326.76 237.237 C 326.689 237.071 326.357 236.596 326.246 236.43 C 325.304 235.027 325.599 235.416 325.218 234.952 C 325.1 234.808 324.973 234.619 324.878 234.492 C 324.39 233.848 324.719 233.63 324.426 233.124 C 324.15 232.641 323.572 232.332 323.422 231.802 C 323.351 231.581 324.007 231.502 324.11 231.708 C 324.276 232.071 324.347 232.228 324.703 232.639 Z" style="fill: none; stroke-dasharray: 2; stroke-linecap: round; stroke-width: 0.2px; stroke: rgba(159, 255, 17, 0.396);"/>
  </g>
</svg>