<svg xmlns="http://www.w3.org/2000/svg" viewBox="0 0 300.5 300.5">
  <path d="M276.384,2.934c-2.272-3.553-6.834-2.92-23.745-2.842c-10.146,0.048-19.983-0.213-24.952,0.062
		c-4.463,0.247-7.68,2.526-10.248,5.677l-8.313,14.73L173.013,84.56c-18.332,32.126-36.759,64.242-53.388,94.613l50.088,90.901
		l13.986,25.383c1.449,2.508,2.993,2.887,4.564,3.371c7.254,2.233,17.856,1.584,29.318,1.584c9.734,0,22.387,0.176,24.473-4.367
		c1.043-2.273,0.13-5.324-1.32-8.388c0,0-8.016-14.457-18.52-33.549c4.877,8.817,9.789,17.676,14.731,26.604L181.3,178.706
		c1.254,2.387,2.522,4.766,3.785,7.148c-1.35-2.535-2.619-4.931-3.785-7.148l42.133-74.92
		c14.614-25.715,29.268-51.489,43.624-77.573l0.054-0.097l0.014-0.023c-0.004,0.006-0.007,0.012-0.01,0.017l9.774-17.381
		C278.229,5.963,277.409,4.541,276.384,2.934z" />
  <path d="M104.779,74.358c-3.67-6.393-6.443-14.728-14.839-14.842c-14.84,0-29.686,0-44.525,0
		c-2.429,0.348-4.608,0.959-5.102,3.246c-0.794,4.819,3.31,11.438,5.572,15.31c5.262,9.038,23.787,38.482,23.645,41.737
		c-0.092,2.182-29.117,51.734-41.734,74.205c-1.877,3.336-5.91,9.348-4.642,12.058c1.327,2.835,3.962,3.892,5.564,3.712
		c14.996,0,29.995,0,44.993,0c9.191-1.119,9.599-5.981,18.081-21.336c12.985-23.506,26.829-47.39,38.961-69.103
		C123.254,105.411,113.284,89.174,104.779,74.358z" />
</svg>